<svg xmlns="http://www.w3.org/2000/svg" viewBox="0 0 960 620">
  <style>
    text { font-family: -apple-system, BlinkMacSystemFont, "Segoe UI", "Helvetica Neue", Arial, "PingFang SC", "Microsoft YaHei", sans-serif; }
    .title { font-size: 20px; font-weight: 700; fill: #111827; }
    .subtitle { font-size: 12px; fill: #6b7280; }
    .tier-label { font-size: 11px; font-weight: 700; letter-spacing: 0.08em; }
    .node-name { font-size: 13px; font-weight: 600; fill: #111827; }
    .node-desc { font-size: 10px; fill: #6b7280; }
    .slogan { font-size: 11px; font-weight: 500; fill: #374151; }
    .arrow-label { font-size: 10px; font-weight: 500; }
  </style>
  <defs>
    <marker id="a-blue" markerWidth="8" markerHeight="6" refX="7" refY="3" orient="auto"><polygon points="0 0,8 3,0 6" fill="#2563eb"/></marker>
    <marker id="a-green" markerWidth="8" markerHeight="6" refX="7" refY="3" orient="auto"><polygon points="0 0,8 3,0 6" fill="#059669"/></marker>
    <marker id="a-orange" markerWidth="8" markerHeight="6" refX="7" refY="3" orient="auto"><polygon points="0 0,8 3,0 6" fill="#ea580c"/></marker>
    <marker id="a-gray" markerWidth="8" markerHeight="6" refX="7" refY="3" orient="auto"><polygon points="0 0,8 3,0 6" fill="#6b7280"/></marker>
  </defs>
  <rect width="960" height="620" fill="#ffffff"/>
  <text x="480" y="32" text-anchor="middle" class="title">Sopify Architecture</text>
  <text x="480" y="50" text-anchor="middle" class="subtitle">AI development assets that persist across sessions, hosts, and teammates</text>
  <rect x="60" y="62" width="840" height="58" rx="8" fill="#f9fafb" stroke="#e5e7eb" stroke-width="1"/>
  <text x="76" y="80" class="tier-label" fill="#6b7280">HOST LAYER</text>
  <text x="200" y="80" class="node-desc">Host executes code; Sopify saves the process</text>
  <rect x="270" y="88" width="100" height="26" rx="6" fill="#ffffff" stroke="#d1d5db" stroke-width="1"/>
  <text x="320" y="105" text-anchor="middle" class="node-name" style="font-size:11px">Codex</text>
  <rect x="390" y="88" width="100" height="26" rx="6" fill="#ffffff" stroke="#d1d5db" stroke-width="1"/>
  <text x="440" y="105" text-anchor="middle" class="node-name" style="font-size:11px">Claude</text>
  <rect x="510" y="88" width="100" height="26" rx="6" fill="#ffffff" stroke="#d1d5db" stroke-width="1"/>
  <text x="560" y="105" text-anchor="middle" class="node-name" style="font-size:11px">Qoder</text>
  <rect x="630" y="88" width="100" height="26" rx="6" fill="#ffffff" stroke="#d1d5db" stroke-width="1"/>
  <text x="680" y="105" text-anchor="middle" class="node-name" style="font-size:11px">Copilot</text>
  <rect x="750" y="88" width="100" height="26" rx="6" fill="#f9fafb" stroke="#d1d5db" stroke-width="1" stroke-dasharray="4,2"/>
  <text x="800" y="105" text-anchor="middle" class="node-desc">Any Host …</text>
  <line x1="480" y1="120" x2="480" y2="142" stroke="#6b7280" stroke-width="1.5" marker-end="url(#a-gray)"/>
  <text x="494" y="135" class="arrow-label" fill="#6b7280">saves process to</text>
  <rect x="60" y="148" width="840" height="90" rx="8" fill="#eff6ff" stroke="#93c5fd" stroke-width="1.5"/>
  <text x="76" y="166" class="tier-label" fill="#2563eb">PROTOCOL LAYER</text>
  <text x="230" y="166" class="node-desc">Plans, decisions, handoffs, and verification records — saved as files in .sopify/</text>
  <rect x="80" y="176" width="160" height="48" rx="8" fill="#ffffff" stroke="#2563eb" stroke-width="1.5"/>
  <text x="160" y="197" text-anchor="middle" class="node-name">Work Request</text>
  <text x="160" y="213" text-anchor="middle" class="node-desc">What needs to be done</text>
  <rect x="295" y="176" width="160" height="48" rx="8" fill="#ffffff" stroke="#2563eb" stroke-width="1.5"/>
  <text x="375" y="197" text-anchor="middle" class="node-name">Protocol Entry</text>
  <text x="375" y="213" text-anchor="middle" class="node-desc">Locate plan and resume</text>
  <rect x="510" y="176" width="160" height="48" rx="8" fill="#ffffff" stroke="#2563eb" stroke-width="1.5"/>
  <text x="590" y="197" text-anchor="middle" class="node-name">Receipt</text>
  <text x="590" y="213" text-anchor="middle" class="node-desc">Verification evidence</text>
  <rect x="720" y="176" width="160" height="48" rx="8" fill="#ffffff" stroke="#2563eb" stroke-width="1.5"/>
  <text x="800" y="197" text-anchor="middle" class="node-name">Handoff</text>
  <text x="800" y="213" text-anchor="middle" class="node-desc">Where we stopped</text>
  <line x1="240" y1="200" x2="291" y2="200" stroke="#2563eb" stroke-width="1.5" marker-end="url(#a-blue)"/>
  <line x1="455" y1="200" x2="506" y2="200" stroke="#2563eb" stroke-width="1.5" marker-end="url(#a-blue)"/>
  <line x1="670" y1="200" x2="716" y2="200" stroke="#2563eb" stroke-width="1.5" marker-end="url(#a-blue)"/>
  <rect x="60" y="255" width="840" height="65" rx="6" fill="#fefce8" stroke="#fde68a" stroke-width="1"/>
  <text x="76" y="274" class="tier-label" fill="#a16207">DEFAULT WORKFLOW</text>
  <text x="250" y="274" class="node-desc">~go starts the workflow; resumes from last checkpoint if active plan exists</text>
  <rect x="100" y="284" width="120" height="26" rx="5" fill="#ffffff" stroke="#fbbf24" stroke-width="1"/>
  <text x="160" y="301" text-anchor="middle" class="node-name" style="font-size:11px">analyze</text>
  <line x1="220" y1="297" x2="250" y2="297" stroke="#a16207" stroke-width="1" marker-end="url(#a-orange)"/>
  <rect x="250" y="284" width="120" height="26" rx="5" fill="#ffffff" stroke="#fbbf24" stroke-width="1"/>
  <text x="310" y="301" text-anchor="middle" class="node-name" style="font-size:11px">design</text>
  <line x1="370" y1="297" x2="400" y2="297" stroke="#a16207" stroke-width="1" marker-end="url(#a-orange)"/>
  <rect x="400" y="284" width="120" height="26" rx="5" fill="#ffffff" stroke="#fbbf24" stroke-width="1"/>
  <text x="460" y="301" text-anchor="middle" class="node-name" style="font-size:11px">develop</text>
  <line x1="520" y1="297" x2="550" y2="297" stroke="#a16207" stroke-width="1" marker-end="url(#a-orange)"/>
  <rect x="550" y="284" width="120" height="26" rx="5" fill="#ffffff" stroke="#fbbf24" stroke-width="1"/>
  <text x="610" y="301" text-anchor="middle" class="node-name" style="font-size:11px">finalize</text>
  <line x1="670" y1="297" x2="700" y2="297" stroke="#a16207" stroke-width="1" marker-end="url(#a-orange)"/>
  <rect x="700" y="284" width="120" height="26" rx="5" fill="#ffffff" stroke="#fbbf24" stroke-width="1"/>
  <text x="760" y="301" text-anchor="middle" class="node-name" style="font-size:11px">archive</text>
  <line x1="380" y1="320" x2="380" y2="358" stroke="#059669" stroke-width="1.5" marker-end="url(#a-green)"/>
  <text x="393" y="344" class="arrow-label" fill="#059669">persist</text>
  <line x1="580" y1="358" x2="580" y2="320" stroke="#ea580c" stroke-width="1.5" marker-end="url(#a-orange)"/>
  <text x="593" y="344" class="arrow-label" fill="#ea580c">resume</text>
  <rect x="60" y="362" width="840" height="100" rx="8" fill="#f0fdf4" stroke="#86efac" stroke-width="1.5"/>
  <text x="76" y="380" class="tier-label" fill="#059669">KNOWLEDGE LAYER</text>
  <text x="250" y="380" class="node-desc">.sopify/ — persisted in git, accessible across sessions and hosts</text>
  <rect x="80" y="392" width="140" height="48" rx="8" fill="#ffffff" stroke="#059669" stroke-width="1.2"/>
  <text x="150" y="413" text-anchor="middle" class="node-name" style="font-size:12px">Blueprint</text>
  <text x="150" y="429" text-anchor="middle" class="node-desc">Long-term baseline</text>
  <rect x="250" y="392" width="140" height="48" rx="8" fill="#ffffff" stroke="#059669" stroke-width="1.2"/>
  <text x="320" y="413" text-anchor="middle" class="node-name" style="font-size:12px">Plan</text>
  <text x="320" y="429" text-anchor="middle" class="node-desc">Active work + receipts</text>
  <rect x="420" y="392" width="140" height="48" rx="8" fill="#ffffff" stroke="#059669" stroke-width="1.2"/>
  <text x="490" y="413" text-anchor="middle" class="node-name" style="font-size:12px">History</text>
  <text x="490" y="429" text-anchor="middle" class="node-desc">Archived decisions</text>
  <rect x="590" y="392" width="140" height="48" rx="8" fill="#ffffff" stroke="#059669" stroke-width="1.2"/>
  <text x="660" y="413" text-anchor="middle" class="node-name" style="font-size:12px">project.md</text>
  <text x="660" y="429" text-anchor="middle" class="node-desc">Conventions</text>
  <rect x="750" y="392" width="140" height="48" rx="8" fill="#ffffff" stroke="#059669" stroke-width="1.2"/>
  <text x="820" y="413" text-anchor="middle" class="node-name" style="font-size:12px">user/</text>
  <text x="820" y="429" text-anchor="middle" class="node-desc">Preferences</text>
  <rect x="60" y="475" width="840" height="48" rx="6" fill="#f8fafc" stroke="#e5e7eb" stroke-width="1"/>
  <text x="76" y="494" class="tier-label" fill="#6b7280">PROTOCOL STATE</text>
  <text x="230" y="494" class="node-desc">2 files only (git-ignored) — active_plan.json (current plan pointer) + current_handoff.json (resume hint)</text>
  <text x="230" y="510" class="node-desc">If missing on new machine: host browses plan/ to find active work. Plans and receipts are always in git.</text>
  <text x="480" y="550" text-anchor="middle" class="slogan">Runtime retired; workflow retained — Protocol-first AI development</text>
  <text x="480" y="566" text-anchor="middle" class="slogan">Host executes; Sopify saves — work resumes from project state, not chat history</text>
  <rect x="730" y="540" width="200" height="72" rx="6" fill="#f9fafb" stroke="#e5e7eb" stroke-width="1"/>
  <text x="746" y="556" class="tier-label" fill="#6b7280">LEGEND</text>
  <line x1="746" y1="570" x2="770" y2="570" stroke="#2563eb" stroke-width="1.5"/>
  <text x="778" y="574" class="node-desc">Protocol flow</text>
  <line x1="746" y1="586" x2="770" y2="586" stroke="#059669" stroke-width="1.5"/>
  <text x="778" y="590" class="node-desc">Persist to knowledge</text>
  <line x1="746" y1="602" x2="770" y2="602" stroke="#ea580c" stroke-width="1.5"/>
  <text x="778" y="606" class="node-desc">Resume from state</text>
</svg>