<?xml version="1.0" encoding="UTF-8"?>
<svg xmlns="http://www.w3.org/2000/svg" viewBox="0 0 960 600">
  <style>
    text { font-family: -apple-system, BlinkMacSystemFont, "Segoe UI", "Helvetica Neue", Arial, sans-serif; }
    .title { font-size: 20px; font-weight: 700; fill: #111827; }
    .subtitle { font-size: 12px; fill: #6b7280; }
    .tier-label { font-size: 11px; font-weight: 700; letter-spacing: 0.08em; }
    .node-name { font-size: 13px; font-weight: 600; fill: #111827; }
    .node-desc { font-size: 10px; fill: #6b7280; }
    .slogan { font-size: 11px; font-weight: 500; fill: #374151; }
    .arrow-label { font-size: 10px; font-weight: 500; }
    .callout-title { font-size: 9px; font-weight: 700; fill: #1d4ed8; letter-spacing: 0.5px; }
    .callout-step { font-size: 9.5px; fill: #374151; }
  </style>
  <defs>
    <marker id="a-blue" markerWidth="8" markerHeight="6" refX="7" refY="3" orient="auto"><polygon points="0 0,8 3,0 6" fill="#2563eb"/></marker>
    <marker id="a-green" markerWidth="8" markerHeight="6" refX="7" refY="3" orient="auto"><polygon points="0 0,8 3,0 6" fill="#059669"/></marker>
    <marker id="a-orange" markerWidth="8" markerHeight="6" refX="7" refY="3" orient="auto"><polygon points="0 0,8 3,0 6" fill="#ea580c"/></marker>
    <marker id="a-gray" markerWidth="8" markerHeight="6" refX="7" refY="3" orient="auto"><polygon points="0 0,8 3,0 6" fill="#6b7280"/></marker>
  </defs>

  <rect width="960" height="600" fill="#ffffff"/>

  <!-- Title -->
  <text x="480" y="28" text-anchor="middle" class="title">Sopify Architecture</text>
  <text x="480" y="46" text-anchor="middle" class="subtitle">File-based development protocol — no runtime; project assets live in .sopify/</text>

  <!-- ═══ TIER 1 : HOST LAYER (y=58, h=62) ═══ -->
  <rect x="60" y="58" width="840" height="62" rx="8" fill="#f9fafb" stroke="#e5e7eb" stroke-width="1"/>
  <text x="76" y="76" class="tier-label" fill="#6b7280">HOST LAYER</text>
  <text x="200" y="76" class="node-desc">Host LLM executes code; Sopify preserves the process as files</text>

  <rect x="200" y="84" width="100" height="26" rx="6" fill="#ffffff" stroke="#d1d5db" stroke-width="1"/>
  <circle cx="213" cy="97" r="3" fill="#10b981"/>
  <text x="255" y="101" text-anchor="middle" class="node-name" style="font-size:11px">Codex</text>

  <rect x="320" y="84" width="100" height="26" rx="6" fill="#ffffff" stroke="#d1d5db" stroke-width="1"/>
  <circle cx="333" cy="97" r="3" fill="#10b981"/>
  <text x="375" y="101" text-anchor="middle" class="node-name" style="font-size:11px">Claude</text>

  <rect x="440" y="84" width="100" height="26" rx="6" fill="#ffffff" stroke="#d1d5db" stroke-width="1"/>
  <circle cx="453" cy="97" r="3" fill="#10b981"/>
  <text x="495" y="101" text-anchor="middle" class="node-name" style="font-size:11px">Qoder</text>

  <rect x="560" y="84" width="100" height="26" rx="6" fill="#fff7ed" stroke="#fbbf24" stroke-width="1" stroke-dasharray="3,2"/>
  <circle cx="573" cy="97" r="3" fill="#fbbf24"/>
  <text x="615" y="101" text-anchor="middle" class="node-name" style="font-size:11px">Copilot</text>

  <rect x="680" y="84" width="110" height="26" rx="6" fill="#f9fafb" stroke="#d1d5db" stroke-width="1" stroke-dasharray="4,2"/>
  <text x="735" y="101" text-anchor="middle" class="node-desc">Other adapters</text>

  <!-- Arrow Tier 1 → 2 -->
  <line x1="480" y1="120" x2="480" y2="136" stroke="#6b7280" stroke-width="1.5" marker-end="url(#a-gray)"/>

  <!-- ═══ TIER 2 : PROTOCOL KERNEL (y=138, h=112, irreplaceable) ═══ -->
  <rect x="60" y="138" width="840" height="112" rx="8" fill="#eff6ff" stroke="#93c5fd" stroke-width="1.5"/>
  <text x="76" y="157" class="tier-label" fill="#2563eb">PROTOCOL KERNEL</text>
  <text x="240" y="157" class="node-desc">Schema, contracts, validated protocol writes — irreplaceable core</text>

  <rect x="80" y="177" width="138" height="48" rx="8" fill="#ffffff" stroke="#2563eb" stroke-width="1.5"/>
  <text x="149" y="198" text-anchor="middle" class="node-name" style="font-size:12px">protocol.md</text>
  <text x="149" y="214" text-anchor="middle" class="node-desc">Schema &amp; admission</text>

  <rect x="228" y="177" width="143" height="48" rx="8" fill="#ffffff" stroke="#2563eb" stroke-width="1.5"/>
  <text x="300" y="198" text-anchor="middle" class="node-name" style="font-size:12px">sopify_contracts</text>
  <text x="300" y="214" text-anchor="middle" class="node-desc">Shared data types</text>

  <rect x="381" y="177" width="138" height="48" rx="8" fill="#ffffff" stroke="#2563eb" stroke-width="1.5"/>
  <text x="450" y="198" text-anchor="middle" class="node-name" style="font-size:12px">sopify_writer</text>
  <text x="450" y="214" text-anchor="middle" class="node-desc">Validated protocol writes</text>

  <rect x="529" y="177" width="138" height="48" rx="8" fill="#ffffff" stroke="#2563eb" stroke-width="1.5"/>
  <text x="598" y="198" text-anchor="middle" class="node-name" style="font-size:12px">receipts</text>
  <text x="598" y="214" text-anchor="middle" class="node-desc">Post-exec evidence</text>

  <!-- 4-step entry callout -->
  <rect x="690" y="162" width="196" height="78" rx="5" fill="#f8fafc" stroke="#93c5fd" stroke-width="0.8" stroke-dasharray="4,2"/>
  <text x="700" y="177" class="callout-title">MANAGED PLAN 4-STEP ENTRY</text>
  <text x="700" y="193" class="callout-step">1. active_plan.json → locate plan</text>
  <text x="700" y="207" class="callout-step">2. plan.md → semantic entry point</text>
  <text x="700" y="221" class="callout-step">3. current_handoff.json → resume hint</text>
  <text x="700" y="235" class="callout-step">4. receipts/ → latest evidence</text>

  <!-- Arrow Tier 2 → 3 -->
  <line x1="480" y1="250" x2="480" y2="266" stroke="#6b7280" stroke-width="1.5" marker-end="url(#a-gray)"/>

  <!-- ═══ TIER 3 : DEFAULT WORKFLOW (y=268, h=72, replaceable) ═══ -->
  <rect x="60" y="268" width="840" height="72" rx="6" fill="#fefce8" stroke="#fde68a" stroke-width="1"/>
  <text x="76" y="287" class="tier-label" fill="#a16207">DEFAULT WORKFLOW</text>
  <text x="260" y="287" class="node-desc">Managed plan path — three phase skills + explicit finalize action</text>

  <rect x="170" y="296" width="130" height="28" rx="5" fill="#ffffff" stroke="#fbbf24" stroke-width="1"/>
  <text x="235" y="314" text-anchor="middle" class="node-name" style="font-size:11px">analyze</text>
  <line x1="300" y1="310" x2="330" y2="310" stroke="#a16207" stroke-width="1" marker-end="url(#a-orange)"/>

  <rect x="330" y="296" width="130" height="28" rx="5" fill="#ffffff" stroke="#fbbf24" stroke-width="1"/>
  <text x="395" y="314" text-anchor="middle" class="node-name" style="font-size:11px">design</text>
  <line x1="460" y1="310" x2="490" y2="310" stroke="#a16207" stroke-width="1" marker-end="url(#a-orange)"/>

  <rect x="490" y="296" width="130" height="28" rx="5" fill="#ffffff" stroke="#fbbf24" stroke-width="1"/>
  <text x="555" y="314" text-anchor="middle" class="node-name" style="font-size:11px">develop</text>
  <line x1="620" y1="310" x2="650" y2="310" stroke="#a16207" stroke-width="1" marker-end="url(#a-orange)"/>

  <rect x="650" y="296" width="130" height="28" rx="5" fill="#ffffff" stroke="#fbbf24" stroke-width="1"/>
  <text x="715" y="314" text-anchor="middle" class="node-name" style="font-size:11px">~go finalize (action)</text>

  <!-- Arrow Tier 3 → 4 -->
  <line x1="380" y1="340" x2="380" y2="356" stroke="#059669" stroke-width="1.5" marker-end="url(#a-green)"/>
  <text x="393" y="352" class="arrow-label" fill="#059669">persist</text>
  <line x1="580" y1="356" x2="580" y2="340" stroke="#ea580c" stroke-width="1.5" marker-end="url(#a-orange)"/>
  <text x="593" y="352" class="arrow-label" fill="#ea580c">consume</text>

  <!-- ═══ TIER 4 : KNOWLEDGE LAYER (y=358, h=90) ═══ -->
  <rect x="60" y="358" width="840" height="90" rx="8" fill="#f0fdf4" stroke="#86efac" stroke-width="1.5"/>
  <text x="76" y="377" class="tier-label" fill="#059669">KNOWLEDGE LAYER</text>
  <text x="250" y="377" class="node-desc">.sopify/ — project assets tracked in git; local pointers (state/) gitignored</text>

  <rect x="80" y="388" width="195" height="48" rx="8" fill="#ffffff" stroke="#059669" stroke-width="1.2"/>
  <text x="178" y="409" text-anchor="middle" class="node-name" style="font-size:12px">Blueprint</text>
  <text x="178" y="425" text-anchor="middle" class="node-desc">Long-term baseline</text>

  <rect x="285" y="388" width="195" height="48" rx="8" fill="#ffffff" stroke="#059669" stroke-width="1.2"/>
  <text x="383" y="409" text-anchor="middle" class="node-name" style="font-size:12px">Plan</text>
  <text x="383" y="425" text-anchor="middle" class="node-desc">Active work + receipts</text>

  <rect x="490" y="388" width="195" height="48" rx="8" fill="#ffffff" stroke="#059669" stroke-width="1.2"/>
  <text x="588" y="409" text-anchor="middle" class="node-name" style="font-size:12px">History</text>
  <text x="588" y="425" text-anchor="middle" class="node-desc">Archived plans + receipts</text>

  <rect x="695" y="388" width="195" height="48" rx="8" fill="#ffffff" stroke="#059669" stroke-width="1.2"/>
  <text x="793" y="409" text-anchor="middle" class="node-name" style="font-size:12px">Project</text>
  <text x="793" y="425" text-anchor="middle" class="node-desc">Conventions · project.md</text>

  <!-- Bottom slogans -->
  <text x="480" y="475" text-anchor="middle" class="slogan">Plans, decisions, and receipts persist as project assets — not chat history</text>
  <text x="480" y="491" text-anchor="middle" class="slogan">Supported hosts resume from project records when asked; handoff pointers stay local</text>

  <!-- Legend -->
  <rect x="60" y="510" width="840" height="66" rx="6" fill="#f9fafb" stroke="#e5e7eb" stroke-width="0.8"/>
  <text x="76" y="534" class="tier-label" fill="#6b7280">LEGEND</text>

  <circle cx="148" cy="530" r="3" fill="#10b981"/>
  <text x="156" y="534" class="node-desc">Protocol verified</text>

  <circle cx="268" cy="530" r="3" fill="#fbbf24"/>
  <text x="276" y="534" class="node-desc">Baseline</text>

  <line x1="358" y1="530" x2="378" y2="530" stroke="#2563eb" stroke-width="1.5"/>
  <text x="384" y="534" class="node-desc">Protocol core</text>

  <line x1="478" y1="530" x2="498" y2="530" stroke="#059669" stroke-width="1.5"/>
  <text x="504" y="534" class="node-desc">Persist to knowledge</text>

  <line x1="628" y1="530" x2="648" y2="530" stroke="#ea580c" stroke-width="1.5"/>
  <text x="654" y="534" class="node-desc">Consume from knowledge</text>

  <!-- Legend row 2 -->
  <rect x="76" y="549" width="14" height="14" rx="3" fill="#ffffff" stroke="#16a34a" stroke-width="1.2"/>
  <text x="96" y="561" class="node-desc">Git tracked (portable)</text>

  <rect x="248" y="549" width="14" height="14" rx="3" fill="#f9fafb" stroke="#9ca3af" stroke-width="1.2" stroke-dasharray="3,2"/>
  <text x="268" y="561" class="node-desc">Git ignored (local, rebuildable)</text>

  <text x="478" y="561" class="node-desc" style="font-style:italic">Convention mode only — host self-drives, writer validates</text>

  <text x="480" y="588" text-anchor="end" class="node-desc" fill="#9ca3af">Sopify · 2026-06</text>
</svg>
